<?xml version="1.0" standalone="no"?>
<!DOCTYPE svg PUBLIC "-//W3C//DTD SVG 20010904//EN"
 "http://www.w3.org/TR/2001/REC-SVG-20010904/DTD/svg10.dtd">
<svg version="1.0" xmlns="http://www.w3.org/2000/svg"
 width="194.000000pt" height="168.000000pt" viewBox="0 0 194.000000 168.000000"
 preserveAspectRatio="xMidYMid meet">
<metadata>
Created by potrace 1.16, written by Peter Selinger 2001-2019
</metadata>
<g transform="translate(0.000000,168.000000) scale(0.100000,-0.100000)"
fill="#000000" stroke="none">
<path d="M135 1667 c-47 -18 -71 -39 -97 -82 l-23 -40 0 -705 0 -705 23 -40
c26 -43 50 -64 97 -82 43 -17 1627 -17 1670 0 47 18 71 39 97 82 l23 40 0 705
0 705 -23 40 c-26 43 -50 64 -97 82 -22 8 -243 11 -835 11 -592 0 -813 -3
-835 -11z m1706 -85 l29 -32 0 -428 0 -427 -182 182 c-101 99 -194 186 -206
193 -13 6 -36 9 -50 5 -17 -4 -131 -110 -305 -283 l-277 -277 -133 131 c-72
72 -150 145 -171 163 -64 54 -74 48 -289 -167 l-187 -187 0 546 c0 543 0 546
21 573 12 15 31 32 43 36 11 5 394 8 849 7 l829 -2 29 -33z m-174 -764 l203
-203 0 -242 0 -243 -29 -32 -29 -33 -669 -3 -668 -2 480 480 c264 264 487 480
495 480 8 0 106 -91 217 -202z m-1009 -191 l152 -152 -208 -208 -209 -209
-132 4 -133 3 -29 33 c-29 32 -29 34 -29 155 l0 122 202 202 c112 112 210 203
218 203 8 0 84 -69 168 -153z"/>
<path d="M430 1398 c-86 -24 -143 -103 -143 -198 0 -136 121 -233 251 -200
204 51 210 344 7 399 -47 13 -68 13 -115 -1z m138 -68 c130 -79 74 -280 -78
-280 -152 0 -208 201 -78 280 43 26 113 26 156 0z"/>
</g>
</svg>
